<?xml version="1.0" encoding="UTF-8"?>
<svg id="Livello_1" data-name="Livello 1" xmlns="http://www.w3.org/2000/svg" version="1.1" viewBox="0 0 898.4 235">
  <path d="M418.8,117.5c0-44.5-29.8-82-70.5-93.7v31.5c24,10.5,40.8,34.4,40.8,62.2s-22.3,58.9-52.1,66V0h-31.5v21.3c-46.4,7.5-81.7,47.7-81.7,96.2s29.8,82,70.5,93.7v-31.5c-24-10.5-40.8-34.4-40.8-62.2s22.3-58.9,52.1-66v183.5h31.5v-21.3c46.4-7.5,81.7-47.7,81.7-96.2Z" fill="#fff" stroke-width="0"/>
  <rect x="305.5" width="31.5" height="235" fill="#fff" stroke-width="0"/>
  <rect x="108.9" width="31.5" height="235" fill="#fff" stroke-width="0"/>
  <rect width="31.5" height="235" fill="#fff" stroke-width="0"/>
  <rect x="611" width="31.5" height="235" fill="#fff" stroke-width="0"/>
  <rect x="719.9" width="31.5" height="235" fill="#fff" stroke-width="0"/>
  <rect x="866.9" width="31.5" height="235" fill="#fff" stroke-width="0"/>
  <rect x="502.1" width="31.5" height="235" fill="#fff" stroke-width="0"/>
</svg>