<?xml version="1.0" encoding="UTF-8"?>
<svg id="Livello_1" data-name="Livello 1" xmlns="http://www.w3.org/2000/svg" version="1.1" viewBox="0 0 1920 720">
  <path d="M223.2,646.1c144.4,0,217.6-72.2,217.6-214.5v-151.2l1.6-192.6c0-.7-1.2-1.9-1.9-1.9h-100.3c-.7,0-1.9,1.2-1.9,1.9l1.6,191.8v151.3c0,84.8-39.2,127.8-116.6,127.8s-108.7-43-108.7-127.8v-153.6l1.6-189.5c0-.7-1.2-1.9-2-1.9H1.9c-.7,0-1.9,1.2-1.9,1.9l1.6,192.6v151.3c0,140.3,76.6,214.5,221.6,214.5Z" fill="#000" stroke-width="0"/>
  <path d="M1724.3,85.9h-138.5c-2.7,0-4,2-4.6,3.6l-144.1,412.6-153.1-412.7c-.6-1.5-2-3.5-4.6-3.5h-148c-.7,0-1.9,1.2-1.9,1.9l1.6,272.2-1.6,272.3c0,.7,1.2,1.9,1.9,1.9h96.3c.7,0,1.9-1.2,1.9-1.9v-249l-4-109.7-1.3-68.3,157.9,425.6c.6,1.5,1.9,3.5,4.6,3.5h82.8c2.7,0,4-2,4.6-3.6l143.8-409.5v50.6l-4,111.6v249c0,.7,1.2,1.9,1.9,1.9h108.3c.7,0,1.9-1.2,1.9-1.9l-1.6-272.2,1.6-272.3c0-.7-1.2-1.9-1.9-1.9Z" fill="#000" stroke-width="0"/>
  <path d="M1918.1,85.9h-108.2c-.7,0-1.9,1.2-1.9,1.9l2.4,272.2-2.4,272.3c0,.7,1.2,1.9,1.9,1.9h108.2c.7,0,1.9-1.2,1.9-1.9l-2.4-272.2,2.4-272.3c0-.7-1.2-1.9-1.9-1.9Z" fill="#000" stroke-width="0"/>
  <path d="M1076.8,360c0-132.7-88.8-244.5-210.2-279.4v93.8c71.6,31.2,121.8,102.7,121.8,185.6s-66.4,175.6-155.4,196.8V9.6h-94.1v63.4c-138.3,22.5-243.8,142.4-243.8,287s88.8,244.5,210.2,279.4v-93.8c-71.6-31.2-121.8-102.7-121.8-185.6s66.4-175.6,155.4-196.8v547.2h94.1v-63.4c138.3-22.5,243.8-142.4,243.8-287Z" fill="#000" stroke-width="0"/>
</svg>