<svg xmlns="http://www.w3.org/2000/svg" xmlns:xlink="http://www.w3.org/1999/xlink" viewBox="0 0 403 402" width="403" height="402" preserveAspectRatio="xMidYMid meet" style="width: 100%; height: 100%; transform: translate3d(0px, 0px, 0px); content-visibility: visible;"><defs><clipPath id="__lottie_element_105"><rect width="403" height="402" x="0" y="0"></rect></clipPath></defs><g clip-path="url(#__lottie_element_105)"><g transform="matrix(1,0,0,1,201.5,201)" opacity="1" style="display: block;"><g opacity="1" transform="matrix(1,0,0,1,0,0)"><g opacity="1" transform="matrix(0.9659258127212524,-0.258819043636322,0.258819043636322,0.9659258127212524,0,0)"><path fill="rgb(255,255,255)" fill-opacity="1" d=" M-0.06199999898672104,-120.5 C-0.06199999898672104,-120.5 -0.06199999898672104,-185 -0.06199999898672104,-185"></path><path stroke-linecap="round" stroke-linejoin="miter" fill-opacity="0" stroke-miterlimit="4" stroke="rgb(63,63,63)" stroke-opacity="1" stroke-width="14" d=" M-0.06199999898672104,-120.5 C-0.06199999898672104,-120.5 -0.06199999898672104,-185 -0.06199999898672104,-185"></path></g><g opacity="1" transform="matrix(0.8660253882408142,-0.5,0.5,0.8660253882408142,0,0)"><path fill="rgb(255,255,255)" fill-opacity="1" d=" M-0.06199999898672104,-120.5 C-0.06199999898672104,-120.5 -0.06199999898672104,-185 -0.06199999898672104,-185"></path><path stroke-linecap="round" stroke-linejoin="miter" fill-opacity="0" stroke-miterlimit="4" stroke="rgb(63,63,63)" stroke-opacity="1" stroke-width="14" d=" M-0.06199999898672104,-120.5 C-0.06199999898672104,-120.5 -0.06199999898672104,-185 -0.06199999898672104,-185"></path></g><g opacity="1" transform="matrix(0.7071067690849304,-0.7071067690849304,0.7071067690849304,0.7071067690849304,0,0)"><path fill="rgb(255,255,255)" fill-opacity="1" d=" M-0.06199999898672104,-120.5 C-0.06199999898672104,-120.5 -0.06199999898672104,-185 -0.06199999898672104,-185"></path><path stroke-linecap="round" stroke-linejoin="miter" fill-opacity="0" stroke-miterlimit="4" stroke="rgb(63,63,63)" stroke-opacity="1" stroke-width="14" d=" M-0.06199999898672104,-120.5 C-0.06199999898672104,-120.5 -0.06199999898672104,-185 -0.06199999898672104,-185"></path></g><g opacity="1" transform="matrix(0.5,-0.8660253882408142,0.8660253882408142,0.5,0,0)"><path fill="rgb(255,255,255)" fill-opacity="1" d=" M-0.06199999898672104,-120.5 C-0.06199999898672104,-120.5 -0.06199999898672104,-185 -0.06199999898672104,-185"></path><path stroke-linecap="round" stroke-linejoin="miter" fill-opacity="0" stroke-miterlimit="4" stroke="rgb(63,63,63)" stroke-opacity="1" stroke-width="14" d=" M-0.06199999898672104,-120.5 C-0.06199999898672104,-120.5 -0.06199999898672104,-185 -0.06199999898672104,-185"></path></g><g opacity="1" transform="matrix(0.258819043636322,-0.9659258127212524,0.9659258127212524,0.258819043636322,0,0)"><path fill="rgb(255,255,255)" fill-opacity="1" d=" M-0.06199999898672104,-120.5 C-0.06199999898672104,-120.5 -0.06199999898672104,-185 -0.06199999898672104,-185"></path><path stroke-linecap="round" stroke-linejoin="miter" fill-opacity="0" stroke-miterlimit="4" stroke="rgb(63,63,63)" stroke-opacity="1" stroke-width="14" d=" M-0.06199999898672104,-120.5 C-0.06199999898672104,-120.5 -0.06199999898672104,-185 -0.06199999898672104,-185"></path></g><g opacity="1" transform="matrix(0,-1,1,0,0,0)"><path fill="rgb(255,255,255)" fill-opacity="1" d=" M-0.06199999898672104,-120.5 C-0.06199999898672104,-120.5 -0.06199999898672104,-185 -0.06199999898672104,-185"></path><path stroke-linecap="round" stroke-linejoin="miter" fill-opacity="0" stroke-miterlimit="4" stroke="rgb(63,63,63)" stroke-opacity="1" stroke-width="14" d=" M-0.06199999898672104,-120.5 C-0.06199999898672104,-120.5 -0.06199999898672104,-185 -0.06199999898672104,-185"></path></g><g opacity="1" transform="matrix(-0.258819043636322,-0.9659258127212524,0.9659258127212524,-0.258819043636322,0,0)"><path fill="rgb(255,255,255)" fill-opacity="1" d=" M-0.06199999898672104,-120.5 C-0.06199999898672104,-120.5 -0.06199999898672104,-185 -0.06199999898672104,-185"></path><path stroke-linecap="round" stroke-linejoin="miter" fill-opacity="0" stroke-miterlimit="4" stroke="rgb(63,63,63)" stroke-opacity="1" stroke-width="14" d=" M-0.06199999898672104,-120.5 C-0.06199999898672104,-120.5 -0.06199999898672104,-185 -0.06199999898672104,-185"></path></g><g opacity="1" transform="matrix(-0.5,-0.8660253882408142,0.8660253882408142,-0.5,0,0)"><path fill="rgb(255,255,255)" fill-opacity="1" d=" M-0.06199999898672104,-120.5 C-0.06199999898672104,-120.5 -0.06199999898672104,-185 -0.06199999898672104,-185"></path><path stroke-linecap="round" stroke-linejoin="miter" fill-opacity="0" stroke-miterlimit="4" stroke="rgb(63,63,63)" stroke-opacity="1" stroke-width="14" d=" M-0.06199999898672104,-120.5 C-0.06199999898672104,-120.5 -0.06199999898672104,-185 -0.06199999898672104,-185"></path></g><g opacity="1" transform="matrix(-0.7071067690849304,-0.7071067690849304,0.7071067690849304,-0.7071067690849304,0,0)"><path fill="rgb(255,255,255)" fill-opacity="1" d=" M-0.06199999898672104,-120.5 C-0.06199999898672104,-120.5 -0.06199999898672104,-185 -0.06199999898672104,-185"></path><path stroke-linecap="round" stroke-linejoin="miter" fill-opacity="0" stroke-miterlimit="4" stroke="rgb(63,63,63)" stroke-opacity="1" stroke-width="14" d=" M-0.06199999898672104,-120.5 C-0.06199999898672104,-120.5 -0.06199999898672104,-185 -0.06199999898672104,-185"></path></g><g opacity="1" transform="matrix(-0.8660253882408142,-0.5,0.5,-0.8660253882408142,0,0)"><path fill="rgb(255,255,255)" fill-opacity="1" d=" M-0.06199999898672104,-120.5 C-0.06199999898672104,-120.5 -0.06199999898672104,-185 -0.06199999898672104,-185"></path><path stroke-linecap="round" stroke-linejoin="miter" fill-opacity="0" stroke-miterlimit="4" stroke="rgb(63,63,63)" stroke-opacity="1" stroke-width="14" d=" M-0.06199999898672104,-120.5 C-0.06199999898672104,-120.5 -0.06199999898672104,-185 -0.06199999898672104,-185"></path></g><g opacity="1" transform="matrix(-0.9659258127212524,-0.258819043636322,0.258819043636322,-0.9659258127212524,0,0)"><path fill="rgb(255,255,255)" fill-opacity="1" d=" M-0.06199999898672104,-120.5 C-0.06199999898672104,-120.5 -0.06199999898672104,-185 -0.06199999898672104,-185"></path><path stroke-linecap="round" stroke-linejoin="miter" fill-opacity="0" stroke-miterlimit="4" stroke="rgb(63,63,63)" stroke-opacity="1" stroke-width="14" d=" M-0.06199999898672104,-120.5 C-0.06199999898672104,-120.5 -0.06199999898672104,-185 -0.06199999898672104,-185"></path></g><g opacity="1" transform="matrix(-1,0,0,-1,0,0)"><path fill="rgb(255,255,255)" fill-opacity="1" d=" M-0.06199999898672104,-120.5 C-0.06199999898672104,-120.5 -0.06199999898672104,-185 -0.06199999898672104,-185"></path><path stroke-linecap="round" stroke-linejoin="miter" fill-opacity="0" stroke-miterlimit="4" stroke="rgb(63,63,63)" stroke-opacity="1" stroke-width="14" d=" M-0.06199999898672104,-120.5 C-0.06199999898672104,-120.5 -0.06199999898672104,-185 -0.06199999898672104,-185"></path></g><g opacity="1" transform="matrix(-0.9659258127212524,0.258819043636322,-0.258819043636322,-0.9659258127212524,0,0)"><path fill="rgb(255,255,255)" fill-opacity="1" d=" M-0.06199999898672104,-120.5 C-0.06199999898672104,-120.5 -0.06199999898672104,-185 -0.06199999898672104,-185"></path><path stroke-linecap="round" stroke-linejoin="miter" fill-opacity="0" stroke-miterlimit="4" stroke="rgb(63,63,63)" stroke-opacity="1" stroke-width="14" d=" M-0.06199999898672104,-120.5 C-0.06199999898672104,-120.5 -0.06199999898672104,-185 -0.06199999898672104,-185"></path></g><g opacity="1" transform="matrix(-0.8660253882408142,0.5,-0.5,-0.8660253882408142,0,0)"><path fill="rgb(255,255,255)" fill-opacity="1" d=" M-0.06199999898672104,-120.5 C-0.06199999898672104,-120.5 -0.06199999898672104,-185 -0.06199999898672104,-185"></path><path stroke-linecap="round" stroke-linejoin="miter" fill-opacity="0" stroke-miterlimit="4" stroke="rgb(63,63,63)" stroke-opacity="1" stroke-width="14" d=" M-0.06199999898672104,-120.5 C-0.06199999898672104,-120.5 -0.06199999898672104,-185 -0.06199999898672104,-185"></path></g><g opacity="1" transform="matrix(-0.7071067690849304,0.7071067690849304,-0.7071067690849304,-0.7071067690849304,0,0)"><path fill="rgb(255,255,255)" fill-opacity="1" d=" M-0.06199999898672104,-120.5 C-0.06199999898672104,-120.5 -0.06199999898672104,-185 -0.06199999898672104,-185"></path><path stroke-linecap="round" stroke-linejoin="miter" fill-opacity="0" stroke-miterlimit="4" stroke="rgb(63,63,63)" stroke-opacity="1" stroke-width="14" d=" M-0.06199999898672104,-120.5 C-0.06199999898672104,-120.5 -0.06199999898672104,-185 -0.06199999898672104,-185"></path></g><g opacity="1" transform="matrix(-0.5,0.8660253882408142,-0.8660253882408142,-0.5,0,0)"><path fill="rgb(255,255,255)" fill-opacity="1" d=" M-0.06199999898672104,-120.5 C-0.06199999898672104,-120.5 -0.06199999898672104,-185 -0.06199999898672104,-185"></path><path stroke-linecap="round" stroke-linejoin="miter" fill-opacity="0" stroke-miterlimit="4" stroke="rgb(63,63,63)" stroke-opacity="1" stroke-width="14" d=" M-0.06199999898672104,-120.5 C-0.06199999898672104,-120.5 -0.06199999898672104,-185 -0.06199999898672104,-185"></path></g><g opacity="1" transform="matrix(-0.258819043636322,0.9659258127212524,-0.9659258127212524,-0.258819043636322,0,0)"><path fill="rgb(255,255,255)" fill-opacity="1" d=" M-0.06199999898672104,-120.5 C-0.06199999898672104,-120.5 -0.06199999898672104,-185 -0.06199999898672104,-185"></path><path stroke-linecap="round" stroke-linejoin="miter" fill-opacity="0" stroke-miterlimit="4" stroke="rgb(63,63,63)" stroke-opacity="1" stroke-width="14" d=" M-0.06199999898672104,-120.5 C-0.06199999898672104,-120.5 -0.06199999898672104,-185 -0.06199999898672104,-185"></path></g><g opacity="1" transform="matrix(0,1,-1,0,0,0)"><path fill="rgb(255,255,255)" fill-opacity="1" d=" M-0.06199999898672104,-120.5 C-0.06199999898672104,-120.5 -0.06199999898672104,-185 -0.06199999898672104,-185"></path><path stroke-linecap="round" stroke-linejoin="miter" fill-opacity="0" stroke-miterlimit="4" stroke="rgb(63,63,63)" stroke-opacity="1" stroke-width="14" d=" M-0.06199999898672104,-120.5 C-0.06199999898672104,-120.5 -0.06199999898672104,-185 -0.06199999898672104,-185"></path></g><g opacity="1" transform="matrix(0.258819043636322,0.9659258127212524,-0.9659258127212524,0.258819043636322,0,0)"><path fill="rgb(255,255,255)" fill-opacity="1" d=" M-0.06199999898672104,-120.5 C-0.06199999898672104,-120.5 -0.06199999898672104,-185 -0.06199999898672104,-185"></path><path stroke-linecap="round" stroke-linejoin="miter" fill-opacity="0" stroke-miterlimit="4" stroke="rgb(63,63,63)" stroke-opacity="1" stroke-width="14" d=" M-0.06199999898672104,-120.5 C-0.06199999898672104,-120.5 -0.06199999898672104,-185 -0.06199999898672104,-185"></path></g><g opacity="1" transform="matrix(0.5,0.8660253882408142,-0.8660253882408142,0.5,0,0)"><path fill="rgb(255,255,255)" fill-opacity="1" d=" M-0.06199999898672104,-120.5 C-0.06199999898672104,-120.5 -0.06199999898672104,-185 -0.06199999898672104,-185"></path><path stroke-linecap="round" stroke-linejoin="miter" fill-opacity="0" stroke-miterlimit="4" stroke="rgb(63,63,63)" stroke-opacity="1" stroke-width="14" d=" M-0.06199999898672104,-120.5 C-0.06199999898672104,-120.5 -0.06199999898672104,-185 -0.06199999898672104,-185"></path></g><g opacity="1" transform="matrix(0.7071067690849304,0.7071067690849304,-0.7071067690849304,0.7071067690849304,0,0)"><path fill="rgb(255,255,255)" fill-opacity="1" d=" M-0.06199999898672104,-120.5 C-0.06199999898672104,-120.5 -0.06199999898672104,-185 -0.06199999898672104,-185"></path><path stroke-linecap="round" stroke-linejoin="miter" fill-opacity="0" stroke-miterlimit="4" stroke="rgb(63,63,63)" stroke-opacity="1" stroke-width="14" d=" M-0.06199999898672104,-120.5 C-0.06199999898672104,-120.5 -0.06199999898672104,-185 -0.06199999898672104,-185"></path></g><g opacity="1" transform="matrix(0.8660253882408142,0.5,-0.5,0.8660253882408142,0,0)"><path fill="rgb(255,255,255)" fill-opacity="1" d=" M-0.06199999898672104,-120.5 C-0.06199999898672104,-120.5 -0.06199999898672104,-185 -0.06199999898672104,-185"></path><path stroke-linecap="round" stroke-linejoin="miter" fill-opacity="0" stroke-miterlimit="4" stroke="rgb(63,63,63)" stroke-opacity="1" stroke-width="14" d=" M-0.06199999898672104,-120.5 C-0.06199999898672104,-120.5 -0.06199999898672104,-185 -0.06199999898672104,-185"></path></g><g opacity="1" transform="matrix(0.9659258127212524,0.258819043636322,-0.258819043636322,0.9659258127212524,0,0)"><path fill="rgb(255,255,255)" fill-opacity="1" d=" M-0.06199999898672104,-120.5 C-0.06199999898672104,-120.5 -0.06199999898672104,-185 -0.06199999898672104,-185"></path><path stroke-linecap="round" stroke-linejoin="miter" fill-opacity="0" stroke-miterlimit="4" stroke="rgb(63,63,63)" stroke-opacity="1" stroke-width="14" d=" M-0.06199999898672104,-120.5 C-0.06199999898672104,-120.5 -0.06199999898672104,-185 -0.06199999898672104,-185"></path></g><g opacity="1" transform="matrix(1,0,0,1,0,0)"><path fill="rgb(255,255,255)" fill-opacity="1" d=" M-0.06199999898672104,-120.5 C-0.06199999898672104,-120.5 -0.06199999898672104,-185 -0.06199999898672104,-185"></path><path stroke-linecap="round" stroke-linejoin="miter" fill-opacity="0" stroke-miterlimit="4" stroke="rgb(63,63,63)" stroke-opacity="1" stroke-width="14" d=" M-0.06199999898672104,-120.5 C-0.06199999898672104,-120.5 -0.06199999898672104,-185 -0.06199999898672104,-185"></path></g></g></g><g transform="matrix(1,0,0,1,201.5,201)" opacity="1" style="display: block;"><g opacity="1" transform="matrix(1,0,0,1,0,0)"><g opacity="1" transform="matrix(0.8672311902046204,0.49790555238723755,-0.49790555238723755,0.8672311902046204,0,0)"><path fill="rgb(255,255,255)" fill-opacity="1" d=" M-0.06199999898672104,-120.5 C-0.06199999898672104,-120.5 -0.06199999898672104,-185 -0.06199999898672104,-185"></path><path stroke-linecap="round" stroke-linejoin="miter" fill-opacity="0" stroke-miterlimit="4" stroke="rgb(223,254,0)" stroke-opacity="1" stroke-width="15" d=" M-0.06199999898672104,-120.5 C-0.06199999898672104,-120.5 -0.06199999898672104,-185 -0.06199999898672104,-185"></path></g><g opacity="1" transform="matrix(0.9665484428405762,0.25648388266563416,-0.25648388266563416,0.9665484428405762,0,0)"><path fill="rgb(255,255,255)" fill-opacity="1" d=" M-0.06199999898672104,-120.5 C-0.06199999898672104,-120.5 -0.06199999898672104,-185 -0.06199999898672104,-185"></path><path stroke-linecap="round" stroke-linejoin="miter" fill-opacity="0" stroke-miterlimit="4" stroke="rgb(223,254,0)" stroke-opacity="1" stroke-width="15" d=" M-0.06199999898672104,-120.5 C-0.06199999898672104,-120.5 -0.06199999898672104,-185 -0.06199999898672104,-185"></path></g><g opacity="1" transform="matrix(0.9999970197677612,-0.0024167269002646208,0.0024167269002646208,0.9999970197677612,0,0)"><path fill="rgb(255,255,255)" fill-opacity="1" d=" M-0.06199999898672104,-120.5 C-0.06199999898672104,-120.5 -0.06199999898672104,-185 -0.06199999898672104,-185"></path><path stroke-linecap="round" stroke-linejoin="miter" fill-opacity="0" stroke-miterlimit="4" stroke="rgb(223,254,0)" stroke-opacity="1" stroke-width="15" d=" M-0.06199999898672104,-120.5 C-0.06199999898672104,-120.5 -0.06199999898672104,-185 -0.06199999898672104,-185"></path></g><g opacity="1" transform="matrix(0.9652974605560303,-0.2611526548862457,0.2611526548862457,0.9652974605560303,0,0)"><path fill="rgb(255,255,255)" fill-opacity="1" d=" M-0.06199999898672104,-120.5 C-0.06199999898672104,-120.5 -0.06199999898672104,-185 -0.06199999898672104,-185"></path><path stroke-linecap="round" stroke-linejoin="miter" fill-opacity="0" stroke-miterlimit="4" stroke="rgb(223,254,0)" stroke-opacity="1" stroke-width="15" d=" M-0.06199999898672104,-120.5 C-0.06199999898672104,-120.5 -0.06199999898672104,-185 -0.06199999898672104,-185"></path></g><g opacity="1" transform="matrix(0.8648144602775574,-0.5020914673805237,0.5020914673805237,0.8648144602775574,0,0)"><path fill="rgb(255,255,255)" fill-opacity="1" d=" M-0.06199999898672104,-120.5 C-0.06199999898672104,-120.5 -0.06199999898672104,-185 -0.06199999898672104,-185"></path><path stroke-linecap="round" stroke-linejoin="miter" fill-opacity="0" stroke-miterlimit="4" stroke="rgb(223,254,0)" stroke-opacity="1" stroke-width="15" d=" M-0.06199999898672104,-120.5 C-0.06199999898672104,-120.5 -0.06199999898672104,-185 -0.06199999898672104,-185"></path></g><g opacity="1" transform="matrix(0.7053958177566528,-0.7088135480880737,0.7088135480880737,0.7053958177566528,0,0)"><path fill="rgb(255,255,255)" fill-opacity="1" d=" M-0.06199999898672104,-120.5 C-0.06199999898672104,-120.5 -0.06199999898672104,-185 -0.06199999898672104,-185"></path><path stroke-linecap="round" stroke-linejoin="miter" fill-opacity="0" stroke-miterlimit="4" stroke="rgb(223,254,0)" stroke-opacity="1" stroke-width="15" d=" M-0.06199999898672104,-120.5 C-0.06199999898672104,-120.5 -0.06199999898672104,-185 -0.06199999898672104,-185"></path></g><g opacity="1" transform="matrix(0.4979056119918823,-0.8672311902046204,0.8672311902046204,0.4979056119918823,0,0)"><path fill="rgb(255,255,255)" fill-opacity="1" d=" M-0.06199999898672104,-120.5 C-0.06199999898672104,-120.5 -0.06199999898672104,-185 -0.06199999898672104,-185"></path><path stroke-linecap="round" stroke-linejoin="miter" fill-opacity="0" stroke-miterlimit="4" stroke="rgb(223,254,0)" stroke-opacity="1" stroke-width="15" d=" M-0.06199999898672104,-120.5 C-0.06199999898672104,-120.5 -0.06199999898672104,-185 -0.06199999898672104,-185"></path></g></g></g><g transform="matrix(0.10000000149011612,0,0,0.10000000149011612,201.0070037841797,201.0070037841797)" opacity="1" style="display: block;"><g opacity="1" transform="matrix(1,0,0,1,0,0)"><path fill="rgb(223,254,0)" fill-opacity="1" d=" M-0.07000000029802322,-558 C-308.2099914550781,-558 -558,-308.2099914550781 -558,-0.07000000029802322 C-558,308.07000732421875 -308.2099914550781,557.8599853515625 -0.07000000029802322,557.8599853515625 C308.07000732421875,557.8599853515625 557.8599853515625,308.07000732421875 557.8599853515625,-0.07000000029802322 C557.8599853515625,-308.2099914550781 308.07000732421875,-558 -0.07000000029802322,-558z M303.2099914550781,268.3399963378906 C303.2099914550781,268.3399963378906 184.4199981689453,268.3399963378906 184.4199981689453,268.3399963378906 C184.4199981689453,268.3399963378906 184.4199981689453,0.7699999809265137 184.4199981689453,0.7699999809265137 C184.4199981689453,0.7699999809265137 231.7899932861328,-151.82000732421875 231.7899932861328,-151.82000732421875 C231.7899932861328,-151.82000732421875 198.22000122070312,-163.72000122070312 198.22000122070312,-163.72000122070312 C198.22000122070312,-163.72000122070312 44.66999816894531,268.3500061035156 44.66999816894531,268.3500061035156 C44.66999816894531,268.3500061035156 -45.310001373291016,268.3500061035156 -45.310001373291016,268.3500061035156 C-45.310001373291016,268.3500061035156 -198.86000061035156,-163.72000122070312 -198.86000061035156,-163.72000122070312 C-198.86000061035156,-163.72000122070312 -232.42999267578125,-151.82000732421875 -232.42999267578125,-151.82000732421875 C-232.42999267578125,-151.82000732421875 -185.05999755859375,0.7699999809265137 -185.05999755859375,0.7699999809265137 C-185.05999755859375,0.7699999809265137 -185.05999755859375,268.3399963378906 -185.05999755859375,268.3399963378906 C-185.05999755859375,268.3399963378906 -303.3699951171875,268.3399963378906 -303.3699951171875,268.3399963378906 C-303.3699951171875,268.3399963378906 -303.3699951171875,-268.4800109863281 -303.3699951171875,-268.4800109863281 C-303.3699951171875,-268.4800109863281 -127.20999908447266,-268.4800109863281 -127.20999908447266,-268.4800109863281 C-127.20999908447266,-268.4800109863281 -17.940000534057617,38.849998474121094 -17.940000534057617,38.849998474121094 C-17.940000534057617,38.849998474121094 -17.940000534057617,129.07000732421875 -17.940000534057617,129.07000732421875 C-17.940000534057617,129.07000732421875 17.770000457763672,129.07000732421875 17.770000457763672,129.07000732421875 C17.770000457763672,129.07000732421875 17.770000457763672,38.849998474121094 17.770000457763672,38.849998474121094 C17.770000457763672,38.849998474121094 127.04000091552734,-268.4800109863281 127.04000091552734,-268.4800109863281 C127.04000091552734,-268.4800109863281 303.20001220703125,-268.4800109863281 303.20001220703125,-268.4800109863281 C303.20001220703125,-268.4800109863281 303.20001220703125,268.3399963378906 303.20001220703125,268.3399963378906 C303.20001220703125,268.3399963378906 303.2099914550781,268.3399963378906 303.2099914550781,268.3399963378906z"></path></g></g></g></svg>