<svg width="156" height="47" viewBox="0 0 156 47" fill="none" xmlns="http://www.w3.org/2000/svg">
<g id="Group 256">
<path id="Vector" fill-rule="evenodd" clip-rule="evenodd" d="M48.2714 33.7738C50.0893 30.7214 50.3711 26.7579 48.3325 23.2454L38.891 6.97765C37.8039 5.10464 36.244 3.54999 34.3673 2.46931C32.4905 1.38864 30.3629 0.819838 28.1973 0.819824H21.2228C21.2106 0.819824 21.1984 0.820114 21.1863 0.820688C19.3399 0.827095 17.5267 1.31426 15.9255 2.23454C14.3135 3.16095 12.9727 4.49388 12.0368 6.1003L2.30817 22.799C1.35402 24.4368 0.848706 26.2973 0.84326 28.1929C0.837815 30.0883 1.33246 31.9518 2.27719 33.5952L3.6186 35.9281L5.80997 39.9486C6.61548 41.7548 7.92751 43.2891 9.5875 44.3654C11.2603 45.45 13.2136 46.0221 15.2072 46.0115H15.2089L35.1021 45.9894C37.0677 45.987 38.9958 45.4527 40.6821 44.4431C42.3684 43.4333 43.75 41.9859 44.68 40.2544L45.6513 38.4461L48.2714 33.7738ZM25.0687 3.25757C26.249 3.85468 27.2737 4.71825 28.0622 5.77977L40.1077 26.5344C40.1293 26.5715 40.1496 26.609 40.1688 26.6472C40.3194 26.9465 40.3985 27.2774 40.399 27.6137C40.3997 27.9931 40.3004 28.366 40.1111 28.6948C39.9218 29.0236 39.6491 29.2967 39.3206 29.4866C38.9921 29.6766 38.6195 29.7765 38.2401 29.7766H34.9881L25.875 13.8253C25.8707 13.8171 25.8662 13.8089 25.8616 13.8007L24.0018 10.5453C23.6923 10.0036 23.2455 9.55323 22.7063 9.23945C22.1671 8.92566 21.5546 8.7597 20.9308 8.75832V8.75941C20.9306 8.75941 20.931 8.75941 20.9308 8.75941C20.3068 8.7581 19.693 8.92144 19.1524 9.23297C18.6118 9.54443 18.163 9.99316 17.8511 10.5335L6.29506 30.5489L6.29298 30.5526L6.2806 30.5743C5.47024 31.9593 4.999 33.5161 4.90494 35.1174L3.59423 32.8379C2.78267 31.4262 2.35779 29.8255 2.36247 28.1972C2.36715 26.5689 2.80122 24.9706 3.62087 23.5637L13.3494 6.86507C14.1516 5.4882 15.3009 4.34575 16.6825 3.55171C18.064 2.75769 19.6296 2.33985 21.2232 2.33984C22.5592 2.34002 23.8766 2.65439 25.0687 3.25757ZM24.3268 14.1778L22.6826 11.2998C22.5056 10.9903 22.2501 10.7328 21.9419 10.5535C21.6337 10.3741 21.2836 10.2794 20.927 10.2786C20.5703 10.2778 20.2199 10.3712 19.9109 10.5493C19.6018 10.7274 19.3452 10.9837 19.1671 11.2926L7.61285 31.3049L7.61074 31.3085L7.59385 31.3382C6.89381 32.5335 6.49071 33.8792 6.41843 35.2625C6.34616 36.6457 6.60668 38.026 7.17823 39.2877L7.17898 39.2881L7.18103 39.2927C7.86542 40.8467 8.98919 42.1668 10.414 43.0907C11.8387 44.0144 13.5025 44.5016 15.2005 44.4923H15.2039L35.1005 44.4701C36.7916 44.4682 38.4507 44.0084 39.9017 43.1396C41.3526 42.2708 42.5414 41.0254 43.3416 39.5356L44.3162 37.7211L44.3229 37.709L44.4177 37.5399C43.5836 38.0065 42.671 38.3626 41.694 38.5834C40.9283 38.7583 40.1419 38.8457 39.3499 38.8417H16.814C16.1384 38.8418 15.4746 38.6642 14.8894 38.3268C14.3041 37.9893 13.8179 37.5039 13.4795 36.9192C13.1411 36.3345 12.9625 35.6711 12.9616 34.9955C12.9605 34.3199 13.1373 33.6559 13.474 33.0702L24.3268 14.1778ZM42.1047 36.8959C41.2492 37.1716 40.3265 37.3224 39.3515 37.3224L16.8136 37.3225C16.4046 37.3225 16.0026 37.215 15.6482 37.0106C15.2938 36.8063 14.9993 36.5123 14.7944 36.1582C14.5895 35.8041 14.4813 35.4024 14.4807 34.9933C14.4801 34.5841 14.5873 34.1818 14.7912 33.8272L16.2454 31.2958H34.5128C34.5244 31.2963 34.536 31.2966 34.5476 31.2966H38.2405C38.8869 31.2965 39.5219 31.1261 40.0814 30.8027C40.641 30.4791 41.1055 30.0139 41.428 29.4537C41.7506 28.8935 41.9198 28.2582 41.9187 27.6119C41.9177 27.0374 41.7822 26.472 41.5242 25.9608C41.4918 25.8966 41.4575 25.8334 41.4213 25.771L29.3551 4.98085L29.3546 4.98006C29.3409 4.95635 29.3259 4.93339 29.3096 4.91129C28.5535 3.88331 27.6102 3.01111 26.5318 2.33904H28.1973C30.0968 2.33905 31.963 2.83796 33.6092 3.78586C35.2553 4.73375 36.6236 6.09738 37.5771 7.74025L47.0185 24.008C48.7333 26.9625 48.525 30.2907 47.0341 32.8805C47.023 32.8967 47.0124 32.9134 47.0025 32.9307C46.9372 33.0439 46.8696 33.1555 46.7995 33.2654C46.0664 34.4036 45.0767 35.3788 43.89 36.0877C43.8505 36.1112 43.811 36.1344 43.7711 36.1572C43.2406 36.4619 42.6819 36.709 42.1047 36.8959ZM17.1181 29.7766H33.2384L25.2003 15.707L17.1181 29.7766Z" fill="white"/>
<path id="Vector_2" fill-rule="evenodd" clip-rule="evenodd" d="M125.698 4.10788C125.554 3.97116 125.442 3.80581 125.367 3.6226C125.292 3.4394 125.256 3.24244 125.262 3.04455C125.257 2.84937 125.294 2.65535 125.369 2.47512C125.444 2.29489 125.556 2.1325 125.698 1.99849C125.844 1.85944 126.017 1.75085 126.205 1.67903C126.394 1.60721 126.595 1.5736 126.796 1.58015C126.995 1.57475 127.193 1.60895 127.379 1.68077C127.564 1.75259 127.734 1.86059 127.877 1.99849C128.019 2.13251 128.131 2.29492 128.206 2.47514C128.281 2.65537 128.317 2.84937 128.313 3.04455C128.319 3.24244 128.283 3.4394 128.208 3.6226C128.133 3.8058 128.02 3.97114 127.877 4.10788C127.734 4.24581 127.564 4.35383 127.379 4.42568C127.193 4.49753 126.995 4.53178 126.796 4.5264C126.595 4.53295 126.394 4.49933 126.205 4.42748C126.017 4.35563 125.844 4.24699 125.698 4.10788ZM125.437 5.41549H128.138V15.0735H125.437V5.41549ZM66.1809 2.8701H63.4091V15.0735H66.1809V2.8701ZM82.7867 6.9408C82.513 6.42344 82.0945 5.99654 81.5835 5.71176C81.0471 5.41655 80.4429 5.26648 79.8308 5.2764C79.2077 5.27536 78.5927 5.40915 78.0264 5.66858C77.4397 5.93903 76.9237 6.34183 76.5182 6.84539C76.361 6.52402 76.1346 6.24128 75.8559 6.01725C75.5552 5.77389 75.2131 5.58777 74.8456 5.46814C74.446 5.33785 74.0282 5.2731 73.6075 5.2764C73.031 5.2701 72.461 5.39846 71.9427 5.65127C71.5022 5.84943 71.1163 6.15152 70.8182 6.53163V5.4159H68.1168V15.074H70.8188V10.8028C70.8044 10.2186 70.8839 9.63586 71.0542 9.07685C71.1764 8.66553 71.412 8.29701 71.7341 8.01348C72.0363 7.76737 72.4165 7.6375 72.8061 7.64734C73.0172 7.63681 73.2275 7.67543 73.4211 7.76014C73.6147 7.84485 73.7865 7.97335 73.9219 8.13549C74.189 8.46085 74.323 8.90253 74.323 9.46044V15.074H77.0074V10.8028C76.9928 10.2186 77.0721 9.63586 77.2425 9.07685C77.3647 8.66553 77.6006 8.29694 77.9223 8.01348C78.2193 7.76926 78.5934 7.63936 78.9777 7.64734C79.191 7.63559 79.405 7.67355 79.6015 7.75825C79.798 7.84296 79.972 7.9721 80.1103 8.13549C80.3782 8.46085 80.5114 8.90253 80.5114 9.46044V15.074H83.2132V8.76307C83.2263 8.12945 83.0793 7.50288 82.7867 6.9408ZM84.974 5.41545H87.6758V6.46149C87.991 6.07139 88.403 5.77079 88.8703 5.58971C89.3929 5.37716 89.9534 5.27051 90.5175 5.27595C91.3596 5.25947 92.1908 5.47027 92.9231 5.88618C93.6211 6.29334 94.1867 6.89238 94.5535 7.61198C94.9582 8.42308 95.1584 9.32077 95.1373 10.227C95.1591 11.1417 94.9589 12.048 94.5535 12.8682C94.1852 13.5949 93.6131 14.198 92.9063 14.6027C92.1668 15.0175 91.3305 15.2281 90.4825 15.213C89.9235 15.2195 89.3696 15.1128 88.8528 14.8991C88.3921 14.7148 87.9866 14.4145 87.6758 14.0274V18.2463H84.974V5.41545ZM91.2934 12.5805C91.6537 12.3534 91.9434 12.0304 92.1304 11.6478C92.3415 11.2107 92.4456 10.7298 92.4354 10.2444C92.4456 9.75909 92.3415 9.27811 92.1304 8.84102C91.9434 8.45845 91.6537 8.13549 91.2934 7.90842C90.9236 7.68348 90.4971 7.56859 90.064 7.57721C89.6229 7.56765 89.1876 7.68242 88.8084 7.90842C88.4452 8.13207 88.1548 8.45598 87.9713 8.84102C87.7661 9.27964 87.6642 9.76004 87.6751 10.2444C87.6642 10.7288 87.7654 11.2092 87.9713 11.6478C88.1548 12.0329 88.4452 12.3569 88.8084 12.5805C89.1876 12.8066 89.6229 12.9213 90.064 12.9117C90.4971 12.9204 90.9236 12.8055 91.2934 12.5805ZM96.767 12.8071C97.195 13.5545 97.8224 14.1675 98.5801 14.5765C99.3924 15.0105 100.302 15.2296 101.222 15.2129C102.139 15.2274 103.045 15.0085 103.854 14.5765C104.616 14.1695 105.247 13.5563 105.676 12.8071C106.119 12.0264 106.344 11.1416 106.331 10.2444C106.344 9.34719 106.119 8.46245 105.676 7.68176C105.247 6.93267 104.616 6.31946 103.854 5.91216C103.045 5.48051 102.139 5.26159 101.222 5.27592C100.302 5.25946 99.3924 5.47847 98.5801 5.91216C97.8231 6.32153 97.195 6.93445 96.767 7.68176C96.3252 8.46253 96.0995 9.34726 96.1134 10.2444C96.0995 11.1416 96.3252 12.0263 96.767 12.8071ZM103.296 11.6477C103.111 12.0341 102.821 12.3604 102.459 12.5891C102.088 12.8189 101.658 12.9368 101.222 12.9291C100.785 12.937 100.355 12.8189 99.9835 12.5891C99.6217 12.3605 99.3313 12.0342 99.1471 11.6477C98.9412 11.2091 98.84 10.7288 98.8509 10.2444C98.84 9.75996 98.9412 9.27964 99.1471 8.84095C99.3313 8.45459 99.6217 8.12829 99.9835 7.89966C100.355 7.66986 100.785 7.55185 101.222 7.55971C101.658 7.55193 102.088 7.66994 102.459 7.89966C102.821 8.12836 103.111 8.45467 103.296 8.84095C103.502 9.27964 103.603 9.75996 103.592 10.2444C103.603 10.7288 103.502 11.2091 103.296 11.6477ZM109.232 14.7947C108.652 14.5405 108.152 14.1338 107.786 13.6178C107.426 13.097 107.229 12.4811 107.219 11.8482H109.781C109.789 12.0248 109.835 12.1978 109.914 12.3556C109.993 12.5134 110.106 12.6525 110.244 12.7635C110.559 12.992 110.944 13.1058 111.333 13.086C111.652 13.1035 111.969 13.0214 112.239 12.8508C112.344 12.7814 112.429 12.6866 112.487 12.5753C112.545 12.4639 112.574 12.3398 112.571 12.2144C112.573 12.1152 112.552 12.0169 112.512 11.9265C112.471 11.836 112.41 11.7557 112.336 11.6915C112.163 11.5433 111.961 11.4334 111.742 11.3689C111.504 11.2934 111.176 11.1975 110.757 11.0813C110.19 10.9626 109.633 10.7963 109.093 10.5844C108.647 10.3965 108.254 10.0998 107.951 9.72153C107.625 9.32652 107.462 8.79764 107.463 8.13513C107.458 7.61697 107.609 7.10947 107.898 6.67928C108.206 6.22957 108.631 5.87361 109.128 5.65086C109.717 5.38843 110.357 5.26037 111.001 5.27599C111.708 5.26263 112.41 5.39006 113.068 5.65086C113.628 5.87137 114.114 6.2461 114.471 6.73166C114.812 7.2153 115.006 7.78763 115.029 8.37919H112.483C112.472 8.21782 112.426 8.06084 112.348 7.91929C112.269 7.77773 112.161 7.65504 112.031 7.55979C111.734 7.35362 111.38 7.24953 111.02 7.26332C110.751 7.25162 110.484 7.31829 110.252 7.45521C110.159 7.51073 110.083 7.59008 110.03 7.68508C109.979 7.78009 109.952 7.8873 109.956 7.99561C109.952 8.09124 109.972 8.1863 110.013 8.27277C110.054 8.35924 110.115 8.43458 110.191 8.49237C110.358 8.6196 110.547 8.71423 110.749 8.77136C110.963 8.83535 111.286 8.91381 111.717 9.00676C112.306 9.11667 112.887 9.27404 113.451 9.47733C113.922 9.66054 114.335 9.96785 114.646 10.3665C114.983 10.7851 115.151 11.3662 115.151 12.1098C115.165 12.6924 114.997 13.2647 114.672 13.7483C114.335 14.2274 113.87 14.602 113.33 14.8291C112.699 15.0955 112.018 15.2259 111.333 15.212C110.611 15.2262 109.894 15.0839 109.232 14.7947ZM116.642 13.6178C117.008 14.1338 117.509 14.5405 118.088 14.7947C118.75 15.0839 119.467 15.2262 120.189 15.212C120.874 15.2259 121.555 15.0955 122.186 14.8291C122.726 14.602 123.191 14.2274 123.528 13.7483C123.853 13.2647 124.021 12.6924 124.007 12.1098C124.007 11.3662 123.839 10.7851 123.502 10.3665C123.191 9.96785 122.778 9.66054 122.307 9.47733C121.743 9.27404 121.162 9.11667 120.573 9.00676C120.142 8.91381 119.82 8.83535 119.606 8.77136C119.403 8.71423 119.214 8.6196 119.047 8.49237C118.972 8.43458 118.91 8.35924 118.869 8.27277C118.828 8.1863 118.809 8.09125 118.812 7.99562C118.809 7.8873 118.835 7.78009 118.886 7.68509C118.939 7.59009 119.015 7.51073 119.108 7.45521C119.34 7.31829 119.607 7.25162 119.876 7.26332C120.236 7.24953 120.59 7.35362 120.887 7.55979C121.017 7.65504 121.125 7.77774 121.204 7.91929C121.282 8.06084 121.328 8.21782 121.339 8.37919H123.885C123.862 7.78763 123.669 7.2153 123.327 6.73166C122.97 6.2461 122.484 5.87138 121.924 5.65086C121.267 5.39007 120.564 5.26264 119.858 5.27599C119.213 5.26036 118.573 5.38841 117.984 5.65086C117.487 5.87361 117.062 6.22957 116.754 6.67928C116.465 7.10947 116.314 7.61697 116.319 8.13513C116.318 8.79764 116.481 9.32652 116.807 9.72153C117.11 10.0998 117.503 10.3965 117.949 10.5844C118.489 10.7963 119.046 10.9626 119.614 11.0813C120.032 11.1975 120.36 11.2934 120.598 11.3689C120.817 11.4334 121.019 11.5433 121.192 11.6915C121.267 11.7558 121.327 11.8361 121.368 11.9265C121.408 12.0169 121.429 12.1152 121.427 12.2144C121.43 12.3398 121.401 12.4639 121.343 12.5753C121.285 12.6866 121.2 12.7814 121.095 12.8508C120.825 13.0214 120.508 13.1035 120.189 13.086C119.8 13.1058 119.416 12.992 119.1 12.7635C118.962 12.6525 118.849 12.5135 118.77 12.3556C118.69 12.1978 118.645 12.0248 118.637 11.8482H116.075C116.085 12.4811 116.282 13.097 116.642 13.6178ZM132.688 14.0101C133 14.3981 133.405 14.701 133.865 14.8905C134.381 15.1098 134.936 15.2198 135.496 15.2133C136.347 15.2305 137.186 15.0198 137.928 14.603C138.631 14.1962 139.2 13.5935 139.566 12.8685C139.971 12.0483 140.172 11.142 140.15 10.2273C140.172 9.32106 139.971 8.42337 139.566 7.61227C139.199 6.89266 138.634 6.29362 137.936 5.88647C137.203 5.47056 136.372 5.25976 135.53 5.27624C134.965 5.2709 134.405 5.38062 133.883 5.59873C133.416 5.78505 133.004 6.08819 132.688 6.47909V2.73104H129.986V15.0735H132.688V14.0101ZM137.133 11.6478C136.951 12.0328 136.66 12.3567 136.297 12.5805C135.924 12.8048 135.495 12.9196 135.059 12.9117C134.627 12.9205 134.2 12.8055 133.83 12.5805C133.47 12.3535 133.18 12.0305 132.993 11.6478C132.782 11.2108 132.677 10.7298 132.688 10.2444C132.677 9.75909 132.782 9.27804 132.993 8.84102C133.18 8.45831 133.47 8.13535 133.83 7.90842C134.2 7.68339 134.627 7.56849 135.059 7.5772C135.495 7.56939 135.924 7.68415 136.297 7.90842C136.66 8.13222 136.951 8.45605 137.133 8.84102C137.339 9.27971 137.441 9.76004 137.43 10.2444C137.441 10.7288 137.339 11.2091 137.133 11.6478ZM141.579 2.7309H144.281V15.0733H141.579V2.7309ZM146.295 12.8156C146.687 13.5572 147.287 14.1689 148.02 14.5766C148.836 15.0171 149.752 15.2365 150.679 15.2128C151.438 15.2257 152.192 15.0801 152.893 14.7855C153.51 14.5255 154.057 14.1222 154.487 13.6088C154.896 13.1179 155.17 12.5291 155.281 11.9004H152.509C152.47 12.066 152.396 12.2216 152.292 12.3567C152.189 12.4919 152.058 12.6037 151.908 12.6849C151.53 12.8847 151.106 12.981 150.679 12.9637C150.238 12.9754 149.802 12.8702 149.415 12.6587C149.05 12.443 148.762 12.1162 148.595 11.726C148.477 11.4459 148.394 11.1532 148.349 10.8545H155.282C155.441 9.90139 155.341 8.92305 154.993 8.02151C154.666 7.18565 154.076 6.47895 153.311 6.00797C152.487 5.50744 151.537 5.25333 150.574 5.2757C149.693 5.26044 148.823 5.48004 148.055 5.91197C147.324 6.3294 146.723 6.94213 146.321 7.68156C145.894 8.46762 145.678 9.35024 145.693 10.2442C145.676 11.1381 145.883 12.022 146.295 12.8156ZM148.458 8.93681H152.492C152.475 8.63118 152.382 8.33457 152.222 8.07372C152.063 7.82243 151.832 7.62494 151.559 7.50714C151.248 7.37414 150.912 7.30879 150.574 7.31543C150.137 7.29906 149.705 7.40792 149.328 7.62918C148.979 7.8599 148.713 8.19583 148.569 8.58809C148.527 8.70287 148.49 8.81919 148.458 8.93681ZM65.9543 29.9963C65.0195 29.5146 64.2466 28.7692 63.7315 27.8525C63.1912 26.911 62.9209 25.7894 62.9209 24.4879C62.9208 23.1862 63.1881 22.0676 63.7227 21.1319C64.2329 20.2206 64.9957 19.476 65.9193 18.9881C66.8993 18.4822 67.9895 18.2277 69.0922 18.2473C70.0172 18.2334 70.933 18.4333 71.7682 18.8312C72.5318 19.1932 73.1875 19.7492 73.6686 20.4438C74.1417 21.1366 74.4212 21.9429 74.4795 22.7798H71.7246C71.6457 22.1665 71.3373 21.6059 70.8616 21.2108C70.3656 20.7992 69.7365 20.5823 69.0922 20.6007C68.4749 20.5889 67.866 20.7456 67.3312 21.054C66.8072 21.3699 66.3885 21.834 66.1282 22.3877C65.8226 23.0448 65.6735 23.7638 65.6925 24.4883C65.6733 25.2137 65.8254 25.9334 66.1366 26.5889C66.4019 27.1421 66.823 27.6056 67.3482 27.9226C67.8773 28.2296 68.48 28.3864 69.0916 28.3759C69.5231 28.3808 69.9497 28.2854 70.338 28.097C70.7138 27.9127 71.0397 27.6406 71.2883 27.3038C71.5402 26.9696 71.7022 26.5765 71.7588 26.1619H74.5304C74.446 26.9985 74.1555 27.8011 73.6853 28.4979C73.2086 29.2001 72.5565 29.7651 71.7936 30.1364C70.9518 30.5431 70.0262 30.7461 69.0914 30.729C68.0017 30.7431 66.925 30.4916 65.9543 29.9963ZM78.5061 18.2464H75.8035V30.5888H78.5061V18.2464ZM82.3674 30.0922C81.6097 29.6831 80.9816 29.0702 80.5543 28.3228C80.1117 27.5421 79.8861 26.6574 79.9007 25.7601C79.8861 24.8629 80.1117 23.9782 80.5543 23.1975C80.9816 22.4502 81.6097 21.8372 82.3674 21.4279C83.179 20.9941 84.0881 20.7751 85.0082 20.7916C85.926 20.7772 86.8315 20.9962 87.6409 21.4279C88.4022 21.8352 89.034 22.4484 89.4635 23.1975C89.906 23.9781 90.1317 24.8629 90.1171 25.7601C90.1317 26.6574 89.906 27.5422 89.4635 28.3228C89.034 29.0719 88.4022 29.6851 87.6409 30.0922C86.8315 30.5241 85.926 30.7431 85.0082 30.7285C84.0881 30.7452 83.179 30.5262 82.3674 30.0922ZM86.2463 28.1049C86.608 27.8762 86.8985 27.5498 87.0833 27.1635C87.2886 26.7248 87.3905 26.2445 87.3796 25.7601C87.3905 25.2757 87.2886 24.7954 87.0833 24.3567C86.8985 23.9703 86.608 23.644 86.2463 23.4153C85.8751 23.1856 85.4449 23.0677 85.0082 23.0754C84.5714 23.0676 84.142 23.1855 83.7708 23.4153C83.4083 23.6439 83.1186 23.9703 82.9337 24.3567C82.7277 24.7954 82.6266 25.2757 82.6375 25.7601C82.6266 26.2445 82.7277 26.7248 82.9337 27.1635C83.1186 27.5499 83.4083 27.8763 83.7708 28.1049C84.142 28.3347 84.5714 28.4527 85.0082 28.4448C85.4449 28.4526 85.8751 28.3346 86.2463 28.1049ZM91.8859 29.0283C92.1828 29.5585 92.6239 29.9937 93.1582 30.2839C93.7347 30.5889 94.3803 30.7418 95.0325 30.7279C95.6548 30.7365 96.2713 30.6057 96.8369 30.345C97.3085 30.1457 97.7154 29.8198 98.0131 29.4036V30.5891H100.733V20.9311H98.0131V25.1324C98.0262 25.72 97.944 26.3058 97.7693 26.8671C97.639 27.302 97.3806 27.6877 97.0283 27.9741C96.6913 28.2316 96.2757 28.3666 95.8513 28.3569C95.6191 28.3654 95.3877 28.3239 95.1729 28.2352C94.9575 28.1465 94.7639 28.0126 94.6052 27.8427C94.2755 27.4722 94.103 26.9872 94.1255 26.4916V20.9305H91.4237V27.1191C91.4076 27.785 91.5663 28.4435 91.8859 29.0283ZM104.394 30.1184C103.688 29.7139 103.115 29.1107 102.747 28.3837C102.342 27.5636 102.141 26.6573 102.163 25.7426C102.142 24.8364 102.342 23.9387 102.747 23.1276C103.113 22.4079 103.68 21.8088 104.377 21.4018C105.109 20.9859 105.94 20.775 106.783 20.7916C107.351 20.7845 107.915 20.8943 108.439 21.1141C108.899 21.3001 109.306 21.5965 109.624 21.977V18.2464H112.327V30.5888H109.624V29.5427C109.31 29.9206 108.909 30.2167 108.456 30.4056C107.938 30.6265 107.381 30.7365 106.817 30.7282C105.97 30.7434 105.134 30.533 104.394 30.1184ZM108.491 28.0962C108.854 27.8723 109.145 27.5484 109.328 27.1634C109.534 26.7248 109.635 26.2444 109.624 25.7601C109.635 25.2757 109.534 24.7953 109.328 24.3566C109.145 23.9717 108.854 23.6479 108.491 23.4241C108.117 23.1998 107.689 23.085 107.253 23.0929C106.818 23.085 106.389 23.1997 106.015 23.4241C105.653 23.6477 105.362 23.9716 105.179 24.3566C104.973 24.7953 104.872 25.2756 104.883 25.7601C104.872 26.2445 104.973 26.7248 105.179 27.1634C105.362 27.5486 105.653 27.8725 106.015 28.0962C106.389 28.3206 106.818 28.4354 107.253 28.4273C107.689 28.4353 108.118 28.3205 108.491 28.0962ZM66.7563 32.9076H63.4091L63.4093 45.111H66.181V39.8636C66.1809 38.6433 66.1518 37.5624 66.0938 36.621C66.454 37.4927 66.9015 38.4749 67.436 39.5672L70.522 45.1105H73.8688V32.9072H71.1146V38.1545C71.1145 39.3749 71.1377 40.4558 71.1842 41.3973C70.8356 40.5254 70.3881 39.5434 69.8419 38.451L66.7563 32.9076ZM77.6086 44.6141C76.8749 44.2064 76.2758 43.5947 75.8828 42.8531C75.4715 42.0594 75.2648 41.1756 75.2816 40.2817C75.267 39.3877 75.4832 38.5051 75.909 37.719C76.3115 36.9796 76.9127 36.3668 77.6435 35.9494C78.4122 35.5174 79.2812 35.2978 80.1627 35.3132C81.1264 35.2908 82.0763 35.5448 82.8995 36.0453C83.6638 36.5163 84.2548 37.223 84.5824 38.0589C84.9303 38.9604 85.0293 39.9388 84.8699 40.8918H77.9376C77.9834 41.1906 78.0657 41.4834 78.1843 41.7634C78.351 42.1537 78.6378 42.4805 79.0032 42.6961C79.3904 42.9076 79.8264 43.0129 80.2675 43.0011C80.6941 43.0184 81.1184 42.9222 81.4962 42.7223C81.6461 42.6411 81.7771 42.5293 81.8805 42.3942C81.9846 42.259 82.0581 42.1035 82.0981 41.9378H84.8699C84.7578 42.5666 84.4848 43.1555 84.0765 43.6463C83.6456 44.1596 83.099 44.563 82.481 44.8229C81.7808 45.1176 81.0267 45.263 80.2668 45.2501C79.3409 45.2738 78.4238 45.0546 77.6086 44.6141ZM82.0799 38.9741H78.0468C78.0788 38.8566 78.1159 38.7403 78.1581 38.6256C78.3023 38.2333 78.5679 37.8974 78.9159 37.6667C79.2936 37.4454 79.726 37.3365 80.1627 37.3529C80.5012 37.3461 80.8367 37.4115 81.1475 37.5446C81.4205 37.6624 81.6512 37.8599 81.8099 38.1112C81.9707 38.3719 82.0632 38.6685 82.0799 38.9741ZM86.9086 35.453H85.549V37.6321H86.9086V41.9207C86.8905 42.5496 87.0477 43.1712 87.3614 43.7164C87.6562 44.2091 88.09 44.6034 88.6082 44.8495C89.1607 45.1105 89.7663 45.2418 90.3777 45.2331C90.8304 45.2331 91.2795 45.1504 91.7024 44.989V42.7401C91.4025 42.856 91.083 42.9151 90.7613 42.9144C90.6055 42.9233 90.4498 42.8991 90.3042 42.8435C90.1586 42.7879 90.0261 42.7022 89.9155 42.5919C89.6986 42.3383 89.5894 42.0099 89.6105 41.6766V37.6321H91.5976V35.453H89.6105V33.4482H86.9086V35.453ZM91.9994 35.453H94.9109L96.8288 41.4325L98.7119 35.453H101.205L103.105 41.4325L105.005 35.453H107.847L104.308 45.111H101.815L99.915 39.4451L98.0146 45.111H95.5034L91.9994 35.453ZM108.622 42.8446C109.05 43.592 109.678 44.2049 110.435 44.614C111.247 45.0479 112.156 45.267 113.076 45.2503C113.994 45.2648 114.9 45.0459 115.709 44.614C116.471 44.2069 117.102 43.5937 117.531 42.8446C117.974 42.0639 118.199 41.1791 118.185 40.2819C118.199 39.3847 117.974 38.4999 117.531 37.7192C117.102 36.9701 116.471 36.3569 115.709 35.9496C114.9 35.5179 113.994 35.299 113.076 35.3134C112.156 35.2969 111.247 35.5159 110.435 35.9496C109.678 36.359 109.05 36.9719 108.622 37.7192C108.18 38.5 107.954 39.3847 107.969 40.2819C107.954 41.1791 108.18 42.0639 108.622 42.8446ZM115.151 41.6852C114.966 42.0716 114.676 42.398 114.315 42.6267C113.943 42.8564 113.513 42.9744 113.076 42.9666C112.64 42.9745 112.21 42.8564 111.838 42.6267C111.477 42.398 111.186 42.0717 111.002 41.6852C110.796 41.2466 110.695 40.7663 110.706 40.2819C110.695 39.7975 110.796 39.3172 111.002 38.8785C111.186 38.492 111.477 38.1657 111.838 37.937C112.21 37.7073 112.64 37.5894 113.076 37.5972C113.513 37.5895 113.943 37.7074 114.315 37.937C114.676 38.1657 114.966 38.4921 115.151 38.8785C115.357 39.3172 115.458 39.7975 115.447 40.2819C115.458 40.7663 115.357 41.2466 115.151 41.6852ZM119.579 35.453H122.28V36.6037C122.545 36.1926 122.923 35.8682 123.37 35.6709C123.85 35.4359 124.378 35.3136 124.913 35.3135C125.315 35.3059 125.715 35.3648 126.098 35.4878V38.0679C125.686 37.914 125.249 37.8372 124.808 37.8415C124.355 37.8343 123.91 37.9681 123.536 38.2243C123.12 38.537 122.805 38.9641 122.629 39.4533C122.396 40.0172 122.28 40.7348 122.28 41.6063V45.1105H119.579V35.453ZM129.829 32.7682H127.127V45.1106H129.829V42.236L131.051 41.0262L133.77 45.1109H136.994L133.004 39.0926L136.681 35.4529H133.316L129.829 38.8563V32.7682Z" fill="white"/>
</g>
</svg>
